<svg width="24" height="25" viewBox="0 0 24 25" fill="none" xmlns="http://www.w3.org/2000/svg">
<path fill-rule="evenodd" clip-rule="evenodd" d="M2.74833 6.70452C1.43847 4.7628 2.85819 2.18945 5.18188 2.18945H18.8195C21.1432 2.18945 22.5629 4.7628 21.2531 6.70452C21.2448 6.71683 21.2361 6.72889 21.2271 6.74069L15.5196 14.204C15.1335 14.7837 14.9282 15.4617 14.9282 16.1543V19.7094C14.9282 20.1965 14.7323 20.6619 14.3865 21.0037L12.209 23.1556C11.0625 24.2886 9.0732 23.5044 9.0732 21.8613V16.1543C9.0732 15.4617 8.86788 14.7837 8.48184 14.204L2.77433 6.74069C2.7653 6.72889 2.75663 6.71683 2.74833 6.70452ZM3.98077 5.849L9.68754 13.3113C9.69656 13.3231 9.70523 13.3352 9.71354 13.3475C10.2737 14.1779 10.5732 15.1545 10.5732 16.1543V21.8613C10.5732 22.1355 10.9294 22.3113 11.1546 22.0887L13.3321 19.9367C13.3947 19.8749 13.4282 19.7929 13.4282 19.7094V16.1543C13.4282 15.1545 13.7277 14.1779 14.2879 13.3475C14.2962 13.3352 14.3049 13.3231 14.3139 13.3113L20.0207 5.849C20.6212 4.93207 19.9672 3.68945 18.8195 3.68945H5.18188C4.03421 3.68945 3.38018 4.93208 3.98077 5.849Z" fill="#FF7A00"/>
</svg>