<svg width="14" height="15" viewBox="0 0 14 15" fill="none" xmlns="http://www.w3.org/2000/svg">
<g clip-path="url(#clip0_544_8350)">
<path d="M1.65848 3.1499H12.0832C12.7375 3.1499 13.2678 3.67766 13.2678 4.32868L13.7417 13.2874C13.7417 13.9384 13.2113 14.4661 12.5571 14.4661H1.18463C0.530376 14.4661 0 13.9384 0 13.2874L0.473851 4.32868C0.473851 3.67766 1.00423 3.1499 1.65848 3.1499Z" fill="#0966B2"/>
<path d="M3.35791 5.72913V2.38086C3.35791 1.06595 4.41638 -2.98023e-07 5.72207 0H7.8734C9.17909 0 10.2376 1.06595 10.2376 2.38086V5.72913" stroke="white" stroke-width="2" stroke-linecap="round"/>
<path d="M3.35791 2.83437V2.38086C3.35791 1.06595 4.41638 -2.98023e-07 5.72207 0H7.8734C9.17909 0 10.2376 1.06595 10.2376 2.38086V2.83437" stroke="#0966B2" stroke-width="2" stroke-linecap="round"/>
</g>
<defs>
<clipPath id="clip0_544_8350">
<rect width="13.7417" height="14.4662" fill="white"/>
</clipPath>
</defs>
</svg>