<svg width="41" height="31" viewBox="0 0 41 31" fill="none" xmlns="http://www.w3.org/2000/svg">
<path d="M9.29563 12.5119C8.84384 12.5119 8.41028 12.5808 7.97875 12.6436C8.11855 12.1736 8.26239 11.6955 8.49335 11.266C8.72431 10.642 9.08493 10.1011 9.44352 9.55608C9.74336 8.96652 10.2721 8.56741 10.6611 8.06295C11.0683 7.57266 11.6234 7.24649 12.0631 6.83927C12.4946 6.41382 13.0598 6.20109 13.5096 5.90125C13.9796 5.6318 14.3889 5.33398 14.8265 5.19217L15.9185 4.74241L16.8788 4.34329L15.8962 0.416992L14.6867 0.708729C14.2997 0.805975 13.8277 0.919428 13.2908 1.05517C12.7418 1.15646 12.1563 1.43402 11.5039 1.68727C10.8597 1.97495 10.1141 2.16944 9.42124 2.63136C8.72431 3.07302 7.92 3.44174 7.21092 4.03332C6.52412 4.64313 5.6955 5.17191 5.08367 5.94785C4.4151 6.67314 3.75464 7.4349 3.24207 8.30201C2.64847 9.1286 2.2453 10.0362 1.81985 10.9337C1.43492 11.8312 1.12495 12.749 0.871706 13.6404C0.391555 15.4273 0.176804 17.125 0.0937395 18.5777C0.0248571 20.0323 0.0653762 21.2418 0.150466 22.117C0.180856 22.5303 0.237582 22.9314 0.278102 23.209L0.32875 23.5493L0.381425 23.5372C0.741764 25.2204 1.57128 26.7672 2.774 27.9987C3.97673 29.2302 5.50353 30.096 7.17777 30.496C8.85202 30.896 10.6053 30.8138 12.2348 30.259C13.8643 29.7041 15.3034 28.6993 16.3857 27.3607C17.4679 26.0222 18.1491 24.4045 18.3505 22.695C18.5518 20.9854 18.265 19.2538 17.5233 17.7005C16.7816 16.1471 15.6153 14.8354 14.1592 13.9172C12.7032 12.999 11.017 12.5118 9.29563 12.5119ZM31.5811 12.5119C31.1293 12.5119 30.6958 12.5808 30.2643 12.6436C30.404 12.1736 30.5479 11.6955 30.7788 11.266C31.0098 10.642 31.3704 10.1011 31.729 9.55608C32.0289 8.96652 32.5576 8.56741 32.9466 8.06295C33.3538 7.57266 33.9089 7.24649 34.3486 6.83927C34.7801 6.41382 35.3454 6.20109 35.7951 5.90125C36.2651 5.6318 36.6744 5.33398 37.112 5.19217L38.204 4.74241L39.1643 4.34329L38.1817 0.416992L36.9722 0.708729C36.5852 0.805975 36.1132 0.919428 35.5763 1.05517C35.0273 1.15646 34.4418 1.43402 33.7894 1.68727C33.1472 1.97698 32.3996 2.16944 31.7067 2.63339C31.0098 3.07504 30.2055 3.44377 29.4964 4.03535C28.8096 4.64516 27.981 5.17393 27.3692 5.94785C26.7006 6.67314 26.0401 7.4349 25.5276 8.30201C24.934 9.1286 24.5308 10.0362 24.1054 10.9337C23.7204 11.8312 23.4105 12.749 23.1572 13.6404C22.6771 15.4273 22.4623 17.125 22.3792 18.5777C22.3104 20.0323 22.3509 21.2418 22.436 22.117C22.4664 22.5303 22.5231 22.9314 22.5636 23.209L22.6143 23.5493L22.6669 23.5372C23.0273 25.2204 23.8568 26.7672 25.0595 27.9987C26.2622 29.2302 27.789 30.096 29.4633 30.496C31.1375 30.896 32.8908 30.8138 34.5203 30.259C36.1498 29.7041 37.5889 28.6993 38.6712 27.3607C39.7534 26.0222 40.4346 24.4045 40.636 22.695C40.8373 20.9854 40.5505 19.2538 39.8088 17.7005C39.0671 16.1471 37.9008 14.8354 36.4447 13.9172C34.9887 12.999 33.3025 12.5118 31.5811 12.5119Z" fill="#3840A9"/>
</svg>